<svg width="24" height="24" viewBox="0 0 24 24" fill="none" xmlns="http://www.w3.org/2000/svg">
<path d="M20.2938 15.9897H3.70689C3.32909 15.9897 3.02283 16.296 3.02283 16.6738V20.2932C3.02283 20.671 3.32909 20.9772 3.70689 20.9772H20.2938C20.6716 20.9772 20.9779 20.671 20.9779 20.2932V16.6738C20.9779 16.296 20.6716 15.9897 20.2938 15.9897Z" fill="#464646"/>
<path d="M4.70408 13.9949H19.2961C19.6738 13.9949 19.9802 14.3013 19.9802 14.6789V15.9897H4.02002V14.6789C4.02002 14.3013 4.32646 13.9949 4.70408 13.9949Z" fill="#333333"/>
<path d="M11.5012 3.02277H12.4989C16.0773 3.02277 18.9824 5.92791 18.9824 9.50625V13.9949H5.0177V9.50625C5.0177 5.92791 7.92284 3.02277 11.5012 3.02277Z" fill="#FF4D4D"/>
<path d="M12.0001 7.01251C13.3767 7.01251 14.4938 8.12969 14.4938 9.50625V13.9949H9.50635V9.50625C9.50635 8.12969 10.6235 7.01251 12.0001 7.01251Z" fill="#FFC542"/>
</svg>
