<svg width="24" height="24" viewBox="0 0 24 24" fill="none" xmlns="http://www.w3.org/2000/svg">
<path d="M13.4586 21.9744C18.1411 21.9744 21.9369 18.1785 21.9369 13.496C21.9369 8.81353 18.1411 5.01764 13.4586 5.01764C8.77612 5.01764 4.98022 8.81353 4.98022 13.496C4.98022 18.1785 8.77612 21.9744 13.4586 21.9744Z" fill="#00B95E"/>
<path d="M10.466 18.9824C15.1485 18.9824 18.9444 15.1865 18.9444 10.504C18.9444 5.82153 15.1485 2.02563 10.466 2.02563C5.78356 2.02563 1.98767 5.82153 1.98767 10.504C1.98767 15.1865 5.78356 18.9824 10.466 18.9824Z" fill="#00EE7B"/>
<path fill-rule="evenodd" clip-rule="evenodd" d="M11.3395 6.90274C12.631 6.90274 13.6776 7.94934 13.6776 9.24085C13.6776 10.5324 12.631 11.579 11.3395 11.579H9.78079V13.9171C9.78079 14.3478 9.43212 14.6964 9.00142 14.6964C8.57071 14.6964 8.22205 14.3478 8.22205 13.9171V7.68271C8.22205 7.25201 8.57071 6.90334 9.00142 6.90334H11.3395V6.90274ZM9.78079 8.46148V10.0202H11.3395C11.7702 10.0202 12.1189 9.67155 12.1189 9.24085C12.1189 8.81015 11.7702 8.46148 11.3395 8.46148H9.78079Z" fill="#212121"/>
</svg>
