<svg width="24" height="24" viewBox="0 0 24 24" fill="none" xmlns="http://www.w3.org/2000/svg">
<path d="M15.933 2.02502H8.06756C6.93417 2.02502 6.01538 2.94382 6.01538 4.0772V19.9228C6.01538 21.0562 6.93417 21.975 8.06756 21.975H15.933C17.0664 21.975 17.9852 21.0562 17.9852 19.9228V4.0772C17.9852 2.94382 17.0664 2.02502 15.933 2.02502Z" fill="#5A5A5A"/>
<path d="M15.6194 4.0199H8.38069C7.6251 4.0199 7.01257 4.63243 7.01257 5.38802V17.6142C7.01257 18.3698 7.6251 18.9823 8.38069 18.9823H15.6194C16.375 18.9823 16.9875 18.3698 16.9875 17.6142V5.38802C16.9875 4.63243 16.375 4.0199 15.6194 4.0199Z" fill="#C2FFD2"/>
<path d="M12.9972 20.4799C12.9972 19.929 12.5506 19.4824 11.9998 19.4824C11.4489 19.4824 11.0023 19.929 11.0023 20.4799C11.0023 21.0307 11.4489 21.4773 11.9998 21.4773C12.5506 21.4773 12.9972 21.0307 12.9972 20.4799Z" fill="#171717"/>
<path d="M13.496 2.52386H10.504C10.2285 2.52386 10.0051 2.74722 10.0051 3.02273C10.0051 3.29825 10.2285 3.5216 10.504 3.5216H13.496C13.7715 3.5216 13.9949 3.29825 13.9949 3.02273C13.9949 2.74722 13.7715 2.52386 13.496 2.52386Z" fill="#171717"/>
</svg>
