<svg width="582" height="782" viewBox="0 0 582 782" fill="none" xmlns="http://www.w3.org/2000/svg">
<g clip-path="url(#clip0_202_114)">
<path d="M290.998 0H143.509C124.721 0 109.492 15.2253 109.492 34.0096V151.284C109.492 161.64 114.211 171.427 122.311 177.885L209.434 247.274L290.998 246.714L372.563 247.274L459.686 177.885C467.786 171.437 472.505 161.64 472.505 151.284V34.0096C472.505 15.2253 457.276 0 438.488 0H290.998Z" fill="#BD773D"/>
<path d="M290.999 0H149.419C131.39 0 116.771 14.9154 116.771 33.3098V148.175C116.771 158.321 121.301 167.909 129.081 174.227L212.715 242.186L291.009 241.636L369.303 242.186L452.937 174.227C460.717 167.909 465.246 158.321 465.246 148.175V33.3098C465.246 14.9154 450.627 0 432.599 0H291.019H290.999Z" fill="#E1B077"/>
<path d="M211.704 0H370.293C380.862 0 389.441 8.57738 389.441 19.1441V233.638H192.556V19.1441C192.556 8.57738 201.135 0 211.704 0Z" fill="#FEFAEC"/>
<path d="M268.441 0H313.567C319.287 0 323.937 4.64859 323.937 10.3668V233.638H258.071V10.3668C258.071 4.64859 262.721 0 268.441 0Z" fill="#F2CCAF"/>
<path d="M290.999 781.94C451.713 781.94 581.998 654.421 581.998 497.118C581.998 339.815 451.713 212.295 290.999 212.295C130.285 212.295 0 339.815 0 497.118C0 654.421 130.285 781.94 290.999 781.94Z" fill="url(#paint0_linear_202_114)"/>
<path d="M290.999 774.203C447.35 774.203 574.098 650.148 574.098 497.118C574.098 344.088 447.35 220.033 290.999 220.033C134.647 220.033 7.89941 344.088 7.89941 497.118C7.89941 650.148 134.647 774.203 290.999 774.203Z" fill="url(#paint1_linear_202_114)"/>
<path d="M291.049 723.189C420.246 723.189 524.982 620.68 524.982 494.229C524.982 367.778 420.246 265.269 291.049 265.269C161.851 265.269 57.1157 367.778 57.1157 494.229C57.1157 620.68 161.851 723.189 291.049 723.189Z" fill="url(#paint2_linear_202_114)"/>
<path d="M290.889 712.512C414.707 712.512 515.082 614.268 515.082 493.079C515.082 371.89 414.707 273.646 290.889 273.646C167.07 273.646 66.6948 371.89 66.6948 493.079C66.6948 614.268 167.07 712.512 290.889 712.512Z" fill="url(#paint3_linear_202_114)"/>
<path d="M290.889 691.338C402.757 691.338 493.444 602.574 493.444 493.079C493.444 383.583 402.757 294.82 290.889 294.82C179.021 294.82 88.3335 383.583 88.3335 493.079C88.3335 602.574 179.021 691.338 290.889 691.338Z" fill="url(#paint4_linear_202_114)"/>
<path d="M402.661 560.2C378.441 560.2 361.361 547.46 361.361 522.68V470.46C361.361 445.82 378.441 432.94 402.661 432.94C426.881 432.94 443.961 445.82 443.961 470.46V522.68C443.961 547.46 426.881 560.2 402.661 560.2ZM402.661 536.4C409.661 536.4 415.821 532.9 415.821 523.94V469.2C415.821 460.52 409.661 456.74 402.661 456.74C395.661 456.74 389.501 460.52 389.501 469.2V523.94C389.501 532.9 395.661 536.4 402.661 536.4Z" fill="#FDFCF5"/>
<path d="M302.943 433.64C310.643 435.46 315.123 443.02 312.043 452.26L277.043 557.96H248.763L213.063 451.98C209.983 443.02 215.303 435.46 223.003 433.64C230.843 431.82 239.383 434.48 241.903 443.58L263.463 520.3L284.743 443.44C287.263 434.48 295.103 431.82 302.943 433.64Z" fill="#FDFCF5"/>
<path d="M210.716 557.96H168.296C151.496 557.96 146.456 551.94 146.456 535.84V447.22C146.456 437.84 153.456 432.94 161.016 432.94C168.576 432.94 175.576 437.84 175.576 447.22V529.4C175.576 532.76 176.416 533.46 179.636 533.46H210.716C218.976 533.46 222.056 539.76 222.056 545.5C222.056 551.24 218.836 557.96 210.716 557.96Z" fill="#FDFCF5"/>
</g>
<defs>
<linearGradient id="paint0_linear_202_114" x1="0" y1="497.118" x2="582.008" y2="497.118" gradientUnits="userSpaceOnUse">
<stop stop-color="#F4B641"/>
<stop offset="1" stop-color="#E5A32D"/>
</linearGradient>
<linearGradient id="paint1_linear_202_114" x1="7.89941" y1="497.118" x2="574.098" y2="497.118" gradientUnits="userSpaceOnUse">
<stop stop-color="#FFDC64"/>
<stop offset="1" stop-color="#F8BE3C"/>
</linearGradient>
<linearGradient id="paint2_linear_202_114" x1="57.1157" y1="494.229" x2="524.972" y2="494.229" gradientUnits="userSpaceOnUse">
<stop stop-color="#E69627"/>
<stop offset="1" stop-color="#F5AD31"/>
</linearGradient>
<linearGradient id="paint3_linear_202_114" x1="66.6948" y1="493.079" x2="515.082" y2="493.079" gradientUnits="userSpaceOnUse">
<stop stop-color="#F4B53B"/>
<stop offset="1" stop-color="#F0AC2F"/>
</linearGradient>
<linearGradient id="paint4_linear_202_114" x1="88.3335" y1="493.079" x2="493.444" y2="493.079" gradientUnits="userSpaceOnUse">
<stop stop-color="#FECC4B"/>
<stop offset="1" stop-color="#F7B93A"/>
</linearGradient>
<clipPath id="clip0_202_114">
<rect width="582" height="782" fill="white"/>
</clipPath>
</defs>
</svg>
