<svg width="582" height="782" viewBox="0 0 582 782" fill="none" xmlns="http://www.w3.org/2000/svg">
<g clip-path="url(#clip0_202_220)">
<path d="M290.998 0H143.509C124.721 0 109.492 15.2253 109.492 34.0096V151.284C109.492 161.64 114.211 171.427 122.311 177.885L209.434 247.274L290.998 246.714L372.563 247.274L459.686 177.885C467.786 171.437 472.505 161.64 472.505 151.284V34.0096C472.505 15.2253 457.276 0 438.488 0H290.998Z" fill="#863DBD"/>
<path d="M290.999 0H149.419C131.39 0 116.771 14.9154 116.771 33.3098V148.175C116.771 158.321 121.301 167.909 129.081 174.227L212.715 242.186L291.009 241.636L369.303 242.186L452.937 174.227C460.717 167.909 465.246 158.321 465.246 148.175V33.3098C465.246 14.9154 450.627 0 432.599 0H291.019H290.999Z" fill="#CC84F0"/>
<path d="M211.704 0H370.293C380.862 0 389.441 8.57738 389.441 19.1441V233.638H192.556V19.1441C192.556 8.57738 201.135 0 211.704 0Z" fill="#FEFAEC"/>
<path d="M268.441 0H313.567C319.287 0 323.937 4.64859 323.937 10.3668V233.638H258.071V10.3668C258.071 4.64859 262.721 0 268.441 0Z" fill="#E2AFF2"/>
<path d="M290.999 781.94C451.713 781.94 581.998 654.421 581.998 497.118C581.998 339.814 451.713 212.295 290.999 212.295C130.285 212.295 0 339.814 0 497.118C0 654.421 130.285 781.94 290.999 781.94Z" fill="url(#paint0_linear_202_220)"/>
<path d="M290.999 774.203C447.35 774.203 574.098 650.148 574.098 497.118C574.098 344.088 447.35 220.033 290.999 220.033C134.647 220.033 7.89941 344.088 7.89941 497.118C7.89941 650.148 134.647 774.203 290.999 774.203Z" fill="url(#paint1_linear_202_220)"/>
<path d="M291.049 723.189C420.246 723.189 524.982 620.68 524.982 494.229C524.982 367.778 420.246 265.269 291.049 265.269C161.851 265.269 57.1157 367.778 57.1157 494.229C57.1157 620.68 161.851 723.189 291.049 723.189Z" fill="url(#paint2_linear_202_220)"/>
<path d="M290.889 712.512C414.707 712.512 515.082 614.268 515.082 493.079C515.082 371.89 414.707 273.646 290.889 273.646C167.07 273.646 66.6948 371.89 66.6948 493.079C66.6948 614.268 167.07 712.512 290.889 712.512Z" fill="url(#paint3_linear_202_220)"/>
<path d="M290.889 691.338C402.757 691.338 493.444 602.575 493.444 493.079C493.444 383.583 402.757 294.82 290.889 294.82C179.021 294.82 88.3335 383.583 88.3335 493.079C88.3335 602.575 179.021 691.338 290.889 691.338Z" fill="url(#paint4_linear_202_220)"/>
<path d="M394.158 516.22H410.818V471.98C410.818 463.3 417.398 459.38 423.838 459.38C430.278 459.38 436.718 463.3 436.718 471.98V516.22H449.318V539.18H436.718V558.5H410.818V539.18H380.718C363.778 539.18 357.198 529.52 361.118 515.24L380.298 444.96C382.678 436.42 388.418 432.64 395.558 433.48C402.978 434.32 408.998 440.48 407.038 449.02L390.098 512.3C389.258 515.38 390.378 516.22 394.158 516.22Z" fill="#FDFCF5"/>
<path d="M305.08 434.181C312.78 436.001 317.26 443.561 314.18 452.801L279.18 558.501H250.9L215.2 452.521C212.12 443.561 217.44 436.001 225.14 434.181C232.98 432.361 241.52 435.021 244.04 444.121L265.6 520.841L286.88 443.981C289.4 435.021 297.24 432.361 305.08 434.181Z" fill="#FDFCF5"/>
<path d="M212.853 558.5H170.433C153.633 558.5 148.593 552.48 148.593 536.38V447.76C148.593 438.38 155.593 433.48 163.153 433.48C170.713 433.48 177.713 438.38 177.713 447.76V529.94C177.713 533.3 178.553 534 181.773 534H212.853C221.113 534 224.193 540.3 224.193 546.04C224.193 551.78 220.973 558.5 212.853 558.5Z" fill="#FDFCF5"/>
</g>
<defs>
<linearGradient id="paint0_linear_202_220" x1="0" y1="497.118" x2="582.008" y2="497.118" gradientUnits="userSpaceOnUse">
<stop stop-color="#F4B641"/>
<stop offset="1" stop-color="#E5A32D"/>
</linearGradient>
<linearGradient id="paint1_linear_202_220" x1="7.89941" y1="497.118" x2="574.098" y2="497.118" gradientUnits="userSpaceOnUse">
<stop stop-color="#FFDC64"/>
<stop offset="1" stop-color="#F8BE3C"/>
</linearGradient>
<linearGradient id="paint2_linear_202_220" x1="57.1157" y1="494.229" x2="524.972" y2="494.229" gradientUnits="userSpaceOnUse">
<stop stop-color="#E69627"/>
<stop offset="1" stop-color="#F5AD31"/>
</linearGradient>
<linearGradient id="paint3_linear_202_220" x1="66.6948" y1="493.079" x2="515.082" y2="493.079" gradientUnits="userSpaceOnUse">
<stop stop-color="#F4B53B"/>
<stop offset="1" stop-color="#F0AC2F"/>
</linearGradient>
<linearGradient id="paint4_linear_202_220" x1="88.3335" y1="493.079" x2="493.444" y2="493.079" gradientUnits="userSpaceOnUse">
<stop stop-color="#FECC4B"/>
<stop offset="1" stop-color="#F7B93A"/>
</linearGradient>
<clipPath id="clip0_202_220">
<rect width="582" height="782" fill="white"/>
</clipPath>
</defs>
</svg>
