<svg width="143" height="155" viewBox="0 0 143 155" fill="none" xmlns="http://www.w3.org/2000/svg">
<path d="M142.277 135.295L122.455 67.6655C120.147 59.6636 112.81 53.8035 104.112 53.8035C93.5501 53.8035 85 62.4003 85 73.02C85 76.1583 85.7544 79.1033 87.0858 81.7061H87.071L118.594 144.695C120.635 149.053 125.029 152.073 130.132 152.073C137.188 152.073 142.898 146.331 142.898 139.237C142.898 137.853 142.676 136.53 142.277 135.295Z" fill="#3AFF8C"/>
<path d="M120.492 76.2463C120.492 65.6117 111.928 57 101.351 57C94.5907 57 88.6736 60.525 85.2565 65.8497L47.5206 123.901C45.3165 127.039 44 130.862 44 134.997C44 145.601 52.5501 154.198 63.0972 154.198C69.9758 154.198 75.9964 150.524 79.3543 145.036L117.312 86.8659C119.324 83.8169 120.492 80.1729 120.492 76.2463Z" fill="#3AFF8C"/>
<path d="M84.7616 124.387H84.7911L67.9276 10.8576H67.9128C66.9661 4.71489 61.6999 0 55.3095 0H12.766C5.70994 0 0 5.74116 0 12.8358C0 14.0703 0.177511 15.2751 0.517741 16.4054L35.0584 135.483H35.0732C38.1501 146.177 47.9428 154 59.5846 154C73.6819 154 85.1166 142.503 85.1166 128.328C85.1166 126.975 84.9835 125.666 84.7764 124.372L84.7616 124.387Z" fill="#3AFF8C"/>
</svg>
