<svg width="24" height="24" viewBox="0 0 24 24" fill="none" xmlns="http://www.w3.org/2000/svg">
<path d="M23.7663 12.2765C23.7663 11.4608 23.7002 10.6406 23.5591 9.83813H12.2403V14.4591H18.722C18.4531 15.9495 17.5888 17.2679 16.3234 18.1056V21.104H20.1903C22.4612 19.014 23.7663 15.9274 23.7663 12.2765Z" fill="#4285F4"/>
<path d="M12.2402 24.0008C15.4766 24.0008 18.206 22.9382 20.1946 21.1039L16.3276 18.1055C15.2517 18.8375 13.8628 19.252 12.2446 19.252C9.11395 19.252 6.45953 17.1399 5.50712 14.3003H1.51667V17.3912C3.55378 21.4434 7.70297 24.0008 12.2402 24.0008Z" fill="#34A853"/>
<path d="M5.50284 14.3002C5.00018 12.8099 5.00018 11.196 5.50284 9.70569V6.61475H1.5168C-0.185199 10.0055 -0.185333 14.0005 1.51667 17.3912L5.50284 14.3002Z" fill="#FBBC04"/>
<path d="M12.2402 4.74966C13.951 4.7232 15.6045 5.36697 16.8435 6.54867L20.2696 3.12262C18.1002 1.0855 15.2209 -0.034466 12.2402 0.000808666C7.70296 0.000808666 3.55392 2.55816 1.5168 6.61475L5.50284 9.70569C6.45085 6.86167 9.10954 4.74966 12.2402 4.74966Z" fill="#EA4335"/>
</svg>
