<svg width="582" height="782" viewBox="0 0 582 782" fill="none" xmlns="http://www.w3.org/2000/svg">
<g clip-path="url(#clip0_202_136)">
<path d="M290.998 0H143.509C124.721 0 109.492 15.2253 109.492 34.0096V151.284C109.492 161.64 114.211 171.427 122.311 177.885L209.434 247.274L290.998 246.714L372.563 247.274L459.686 177.885C467.786 171.437 472.505 161.64 472.505 151.284V34.0096C472.505 15.2253 457.276 0 438.488 0H290.998Z" fill="#3D77BD"/>
<path d="M290.999 0H149.419C131.39 0 116.771 14.9154 116.771 33.3098V148.175C116.771 158.321 121.301 167.909 129.081 174.227L212.715 242.186L291.009 241.636L369.303 242.186L452.937 174.227C460.717 167.909 465.246 158.321 465.246 148.175V33.3098C465.246 14.9154 450.627 0 432.599 0H291.019H290.999Z" fill="#7795E1"/>
<path d="M211.704 0H370.293C380.862 0 389.441 8.57738 389.441 19.1441V233.638H192.556V19.1441C192.556 8.57738 201.135 0 211.704 0Z" fill="#FEFAEC"/>
<path d="M268.441 0H313.567C319.287 0 323.937 4.64859 323.937 10.3668V233.638H258.071V10.3668C258.071 4.64859 262.721 0 268.441 0Z" fill="#AFC4F2"/>
<path d="M290.999 781.94C451.713 781.94 581.998 654.421 581.998 497.118C581.998 339.814 451.713 212.295 290.999 212.295C130.285 212.295 0 339.814 0 497.118C0 654.421 130.285 781.94 290.999 781.94Z" fill="url(#paint0_linear_202_136)"/>
<path d="M290.999 774.203C447.35 774.203 574.098 650.148 574.098 497.118C574.098 344.088 447.35 220.033 290.999 220.033C134.647 220.033 7.89941 344.088 7.89941 497.118C7.89941 650.148 134.647 774.203 290.999 774.203Z" fill="url(#paint1_linear_202_136)"/>
<path d="M291.049 723.189C420.246 723.189 524.982 620.68 524.982 494.229C524.982 367.778 420.246 265.269 291.049 265.269C161.851 265.269 57.1157 367.778 57.1157 494.229C57.1157 620.68 161.851 723.189 291.049 723.189Z" fill="url(#paint2_linear_202_136)"/>
<path d="M290.889 712.512C414.707 712.512 515.082 614.268 515.082 493.079C515.082 371.89 414.707 273.646 290.889 273.646C167.07 273.646 66.6948 371.89 66.6948 493.079C66.6948 614.268 167.07 712.512 290.889 712.512Z" fill="url(#paint3_linear_202_136)"/>
<path d="M290.889 691.338C402.757 691.338 493.444 602.575 493.444 493.079C493.444 383.583 402.757 294.82 290.889 294.82C179.021 294.82 88.3335 383.583 88.3335 493.079C88.3335 602.575 179.021 691.338 290.889 691.338Z" fill="url(#paint4_linear_202_136)"/>
<path d="M444.203 558.5H382.603C372.103 558.5 365.243 552.48 365.243 541.98V540.44C365.243 521.68 370.843 514.54 382.603 503.76L405.983 482.2C411.583 477.16 414.523 473.38 414.523 468.06C414.523 461.9 409.203 458.96 404.163 458.96C397.303 458.96 393.943 461.9 391.143 464.98C389.183 467.22 386.523 469.88 383.863 470.58C380.083 471.7 374.903 471.28 370.843 467.92C365.803 463.86 365.803 456.3 369.023 450.98C376.163 439.36 389.043 433.48 406.403 433.48C426.143 433.48 443.083 444.4 443.083 465.26C443.083 480.94 434.403 489.9 422.783 501.24L404.863 518.6C398.843 524.48 394.783 526.02 394.783 531.2V532.18C394.783 533.58 395.343 534.28 396.883 534.28H444.203V558.5Z" fill="#FDFCF5"/>
<path d="M308.224 434.18C315.924 436 320.404 443.56 317.324 452.8L282.324 558.5H254.044L218.344 452.52C215.264 443.56 220.584 436 228.284 434.18C236.124 432.36 244.664 435.02 247.184 444.12L268.744 520.84L290.024 443.98C292.544 435.02 300.384 432.36 308.224 434.18Z" fill="#FDFCF5"/>
<path d="M215.997 558.5H173.577C156.777 558.5 151.737 552.48 151.737 536.38V447.76C151.737 438.38 158.737 433.48 166.297 433.48C173.857 433.48 180.857 438.38 180.857 447.76V529.94C180.857 533.3 181.697 534 184.917 534H215.997C224.257 534 227.337 540.3 227.337 546.04C227.337 551.78 224.117 558.5 215.997 558.5Z" fill="#FDFCF5"/>
</g>
<defs>
<linearGradient id="paint0_linear_202_136" x1="0" y1="497.118" x2="582.008" y2="497.118" gradientUnits="userSpaceOnUse">
<stop stop-color="#F4B641"/>
<stop offset="1" stop-color="#E5A32D"/>
</linearGradient>
<linearGradient id="paint1_linear_202_136" x1="7.89941" y1="497.118" x2="574.098" y2="497.118" gradientUnits="userSpaceOnUse">
<stop stop-color="#FFDC64"/>
<stop offset="1" stop-color="#F8BE3C"/>
</linearGradient>
<linearGradient id="paint2_linear_202_136" x1="57.1157" y1="494.229" x2="524.972" y2="494.229" gradientUnits="userSpaceOnUse">
<stop stop-color="#E69627"/>
<stop offset="1" stop-color="#F5AD31"/>
</linearGradient>
<linearGradient id="paint3_linear_202_136" x1="66.6948" y1="493.079" x2="515.082" y2="493.079" gradientUnits="userSpaceOnUse">
<stop stop-color="#F4B53B"/>
<stop offset="1" stop-color="#F0AC2F"/>
</linearGradient>
<linearGradient id="paint4_linear_202_136" x1="88.3335" y1="493.079" x2="493.444" y2="493.079" gradientUnits="userSpaceOnUse">
<stop stop-color="#FECC4B"/>
<stop offset="1" stop-color="#F7B93A"/>
</linearGradient>
<clipPath id="clip0_202_136">
<rect width="582" height="782" fill="white"/>
</clipPath>
</defs>
</svg>
