<svg width="582" height="782" viewBox="0 0 582 782" fill="none" xmlns="http://www.w3.org/2000/svg">
<g clip-path="url(#clip0_202_157)">
<path d="M290.998 0H143.509C124.721 0 109.492 15.2253 109.492 34.0096V151.284C109.492 161.64 114.211 171.427 122.311 177.885L209.434 247.274L290.998 246.714L372.563 247.274L459.686 177.885C467.786 171.437 472.505 161.64 472.505 151.284V34.0096C472.505 15.2253 457.276 0 438.488 0H290.998Z" fill="#BD6C3D"/>
<path d="M290.999 0H149.419C131.39 0 116.771 14.9154 116.771 33.3098V148.175C116.771 158.321 121.301 167.909 129.081 174.227L212.715 242.186L291.009 241.636L369.303 242.186L452.937 174.227C460.717 167.909 465.246 158.321 465.246 148.175V33.3098C465.246 14.9154 450.627 0 432.599 0H291.019H290.999Z" fill="#E18577"/>
<path d="M211.704 0H370.293C380.862 0 389.441 8.57738 389.441 19.1441V233.638H192.556V19.1441C192.556 8.57738 201.135 0 211.704 0Z" fill="#FEFAEC"/>
<path d="M268.441 0H313.567C319.287 0 323.937 4.64859 323.937 10.3668V233.638H258.071V10.3668C258.071 4.64859 262.721 0 268.441 0Z" fill="#F2BEAF"/>
<path d="M290.999 781.94C451.713 781.94 581.998 654.421 581.998 497.118C581.998 339.814 451.713 212.295 290.999 212.295C130.285 212.295 0 339.814 0 497.118C0 654.421 130.285 781.94 290.999 781.94Z" fill="url(#paint0_linear_202_157)"/>
<path d="M290.999 774.203C447.35 774.203 574.098 650.148 574.098 497.118C574.098 344.088 447.35 220.033 290.999 220.033C134.647 220.033 7.89941 344.088 7.89941 497.118C7.89941 650.148 134.647 774.203 290.999 774.203Z" fill="url(#paint1_linear_202_157)"/>
<path d="M291.049 723.189C420.246 723.189 524.982 620.68 524.982 494.229C524.982 367.778 420.246 265.269 291.049 265.269C161.851 265.269 57.1157 367.778 57.1157 494.229C57.1157 620.68 161.851 723.189 291.049 723.189Z" fill="url(#paint2_linear_202_157)"/>
<path d="M290.889 712.512C414.707 712.512 515.082 614.268 515.082 493.079C515.082 371.89 414.707 273.646 290.889 273.646C167.07 273.646 66.6948 371.89 66.6948 493.079C66.6948 614.268 167.07 712.512 290.889 712.512Z" fill="url(#paint3_linear_202_157)"/>
<path d="M290.889 691.338C402.757 691.338 493.444 602.575 493.444 493.079C493.444 383.583 402.757 294.82 290.889 294.82C179.021 294.82 88.3335 383.583 88.3335 493.079C88.3335 602.575 179.021 691.338 290.889 691.338Z" fill="url(#paint4_linear_202_157)"/>
<path d="M435.376 461.44L413.816 482.72C430.756 484.68 443.916 497.28 443.916 518C443.916 544.6 424.456 558.74 399.536 558.74C387.076 558.74 373.216 554.26 366.636 545.44C362.856 540.26 363.416 532.98 368.176 528.78C372.096 525.28 376.436 525.14 380.496 526.54C383.576 527.66 385.816 529.48 388.196 530.88C390.716 532.28 394.356 533.26 399.396 533.26C409.756 533.26 416.476 527.1 416.476 517.02C416.476 506.38 408.636 501.06 397.016 501.06H389.456C383.996 501.06 380.076 497.56 379.096 493.64C377.836 488.6 378.956 484.68 383.716 480.06L406.956 457.1H377.696C369.436 457.1 366.216 450.94 366.216 445.48C366.216 440.16 369.576 433.72 377.696 433.72H424.036C439.156 433.72 444.896 452.2 435.376 461.44Z" fill="#FDFCF5"/>
<path d="M308.498 432.18C316.198 434 320.678 441.56 317.598 450.8L282.598 556.5H254.318L218.618 450.52C215.538 441.56 220.858 434 228.558 432.18C236.398 430.36 244.938 433.02 247.458 442.12L269.018 518.84L290.298 441.98C292.818 433.02 300.658 430.36 308.498 432.18Z" fill="#FDFCF5"/>
<path d="M216.271 556.5H173.851C157.051 556.5 152.011 550.48 152.011 534.38V445.76C152.011 436.38 159.011 431.48 166.571 431.48C174.131 431.48 181.131 436.38 181.131 445.76V527.94C181.131 531.3 181.971 532 185.191 532H216.271C224.531 532 227.611 538.3 227.611 544.04C227.611 549.78 224.391 556.5 216.271 556.5Z" fill="#FDFCF5"/>
</g>
<defs>
<linearGradient id="paint0_linear_202_157" x1="0" y1="497.118" x2="582.008" y2="497.118" gradientUnits="userSpaceOnUse">
<stop stop-color="#F4B641"/>
<stop offset="1" stop-color="#E5A32D"/>
</linearGradient>
<linearGradient id="paint1_linear_202_157" x1="7.89941" y1="497.118" x2="574.098" y2="497.118" gradientUnits="userSpaceOnUse">
<stop stop-color="#FFDC64"/>
<stop offset="1" stop-color="#F8BE3C"/>
</linearGradient>
<linearGradient id="paint2_linear_202_157" x1="57.1157" y1="494.229" x2="524.972" y2="494.229" gradientUnits="userSpaceOnUse">
<stop stop-color="#E69627"/>
<stop offset="1" stop-color="#F5AD31"/>
</linearGradient>
<linearGradient id="paint3_linear_202_157" x1="66.6948" y1="493.079" x2="515.082" y2="493.079" gradientUnits="userSpaceOnUse">
<stop stop-color="#F4B53B"/>
<stop offset="1" stop-color="#F0AC2F"/>
</linearGradient>
<linearGradient id="paint4_linear_202_157" x1="88.3335" y1="493.079" x2="493.444" y2="493.079" gradientUnits="userSpaceOnUse">
<stop stop-color="#FECC4B"/>
<stop offset="1" stop-color="#F7B93A"/>
</linearGradient>
<clipPath id="clip0_202_157">
<rect width="582" height="782" fill="white"/>
</clipPath>
</defs>
</svg>
