<svg width="582" height="782" viewBox="0 0 582 782" fill="none" xmlns="http://www.w3.org/2000/svg">
<path d="M290.998 0H143.509C124.721 0 109.492 15.2253 109.492 34.0096V151.284C109.492 161.64 114.211 171.427 122.311 177.885L209.434 247.274L290.998 246.714L372.563 247.274L459.686 177.885C467.786 171.437 472.505 161.64 472.505 151.284V34.0096C472.505 15.2253 457.276 0 438.488 0H290.998Z" fill="#3DBD98"/>
<path d="M290.999 0H149.419C131.39 0 116.771 14.9154 116.771 33.3098V148.175C116.771 158.321 121.301 167.909 129.081 174.227L212.715 242.186L291.009 241.636L369.303 242.186L452.937 174.227C460.717 167.909 465.246 158.321 465.246 148.175V33.3098C465.246 14.9154 450.627 0 432.599 0H291.019H290.999Z" fill="#77E1B3"/>
<path d="M211.704 0H370.293C380.862 0 389.441 8.57738 389.441 19.1441V233.638H192.556V19.1441C192.556 8.57738 201.135 0 211.704 0Z" fill="#FEFAEC"/>
<path d="M268.441 0H313.567C319.287 0 323.937 4.64859 323.937 10.3668V233.638H258.071V10.3668C258.071 4.64859 262.721 0 268.441 0Z" fill="#AFF2C0"/>
<path d="M330.84 213.1L335.38 216.95C349.47 228.91 368.18 233.92 386.37 230.61L392.22 229.54C421.94 224.13 451.21 241.03 461.39 269.48L463.39 275.08C469.62 292.48 483.31 306.18 500.72 312.41L506.32 314.41C534.77 324.59 551.67 353.86 546.26 383.58L545.19 389.43C541.88 407.62 546.89 426.33 558.85 440.42L562.7 444.96C582.25 468 582.25 501.79 562.7 524.83L558.85 529.37C546.89 543.46 541.88 562.17 545.19 580.36L546.26 586.21C551.67 615.93 534.77 645.2 506.32 655.38L500.72 657.38C483.32 663.61 469.62 677.3 463.39 694.71L461.39 700.31C451.21 728.76 421.94 745.66 392.22 740.25L386.37 739.18C368.18 735.87 349.47 740.88 335.38 752.84L330.84 756.69C307.8 776.24 274.01 776.24 250.97 756.69L246.43 752.84C232.34 740.88 213.63 735.87 195.44 739.18L189.59 740.25C159.87 745.66 130.6 728.76 120.42 700.31L118.42 694.71C112.19 677.31 98.4998 663.61 81.0898 657.38L75.4898 655.38C47.0398 645.2 30.1398 615.93 35.5498 586.21L36.6198 580.36C39.9298 562.17 34.9198 543.46 22.9598 529.37L19.1098 524.83C-0.440234 501.79 -0.440234 468 19.1098 444.96L22.9598 440.42C34.9198 426.33 39.9298 407.62 36.6198 389.43L35.5498 383.58C30.1398 353.86 47.0398 324.59 75.4898 314.41L81.0898 312.41C98.4898 306.18 112.19 292.49 118.42 275.08L120.42 269.48C130.6 241.03 159.87 224.13 189.59 229.54L195.44 230.61C213.63 233.92 232.34 228.91 246.43 216.95L250.97 213.1C274.01 193.55 307.8 193.55 330.84 213.1Z" fill="url(#paint0_linear_202_178)"/>
<path d="M320.97 205.94L359.01 230.75L404.36 228.28C426.14 227.09 446.56 238.89 456.43 258.34L476.97 298.85L517.48 319.39C536.94 329.25 548.73 349.68 547.54 371.46L545.07 416.81L569.88 454.85C581.8 473.12 581.8 496.7 569.88 514.97L545.07 553.01L547.54 598.36C548.73 620.14 536.93 640.56 517.48 650.43L476.97 670.97L456.43 711.48C446.57 730.94 426.14 742.73 404.36 741.54L359.01 739.07L320.97 763.88C302.7 775.8 279.12 775.8 260.85 763.88L222.81 739.07L177.46 741.54C155.68 742.73 135.26 730.93 125.39 711.48L104.85 670.97L64.34 650.43C44.88 640.57 33.09 620.14 34.28 598.36L36.75 553.01L11.94 514.97C0.0200005 496.7 0.0200005 473.12 11.94 454.85L36.75 416.81L34.28 371.46C33.09 349.68 44.89 329.26 64.34 319.39L104.85 298.85L125.39 258.34C135.25 238.88 155.68 227.09 177.46 228.28L222.81 230.75L260.85 205.94C279.12 194.02 302.7 194.02 320.97 205.94Z" fill="url(#paint1_linear_202_178)"/>
<path d="M320.97 216.61L356.58 239.84L399.03 237.53C420.81 236.34 441.23 248.14 451.1 267.59L470.32 305.51L508.24 324.73C527.7 334.59 539.49 355.02 538.3 376.8L535.99 419.25L559.22 454.86C571.14 473.13 571.14 496.71 559.22 514.98L535.99 550.59L538.3 593.04C539.49 614.82 527.69 635.24 508.24 645.11L470.32 664.33L451.1 702.25C441.24 721.71 420.81 733.5 399.03 732.31L356.58 730L320.97 753.23C302.7 765.15 279.12 765.15 260.85 753.23L225.24 730L182.79 732.31C161.01 733.5 140.59 721.7 130.72 702.25L111.5 664.33L73.5802 645.11C54.1202 635.25 42.3302 614.82 43.5202 593.04L45.8302 550.59L22.6002 514.98C10.6802 496.71 10.6802 473.13 22.6002 454.86L45.8302 419.25L43.5202 376.8C42.3302 355.02 54.1302 334.6 73.5802 324.73L111.5 305.51L130.72 267.59C140.58 248.13 161.01 236.34 182.79 237.53L225.24 239.84L260.85 216.61C279.12 204.69 302.7 204.69 320.97 216.61Z" fill="url(#paint2_linear_202_178)"/>
<path d="M320.97 260.26L346.62 276.99L377.2 275.32C398.98 274.13 419.4 285.93 429.27 305.38L443.12 332.7L470.44 346.55C489.9 356.41 501.69 376.84 500.5 398.62L498.83 429.2L515.56 454.85C527.48 473.12 527.48 496.7 515.56 514.97L498.83 540.62L500.5 571.2C501.69 592.98 489.89 613.4 470.44 623.27L443.12 637.12L429.27 664.44C419.41 683.9 398.98 695.69 377.2 694.5L346.62 692.83L320.97 709.56C302.7 721.48 279.12 721.48 260.85 709.56L235.2 692.83L204.62 694.5C182.84 695.69 162.42 683.89 152.55 664.44L138.7 637.12L111.38 623.27C91.9198 613.41 80.1298 592.98 81.3198 571.2L82.9898 540.62L66.2598 514.97C54.3398 496.7 54.3398 473.12 66.2598 454.85L82.9898 429.2L81.3198 398.62C80.1298 376.84 91.9298 356.42 111.38 346.55L138.7 332.7L152.55 305.38C162.41 285.92 182.84 274.13 204.62 275.32L235.2 276.99L260.85 260.26C279.12 248.34 302.7 248.34 320.97 260.26Z" fill="url(#paint3_linear_202_178)"/>
<path d="M320.97 270.93L344.19 286.07L371.87 284.56C393.65 283.37 414.07 295.17 423.94 314.62L436.47 339.34L461.19 351.87C480.65 361.73 492.44 382.16 491.25 403.94L489.74 431.62L504.88 454.84C516.8 473.11 516.8 496.69 504.88 514.96L489.74 538.18L491.25 565.86C492.44 587.64 480.64 608.06 461.19 617.93L436.47 630.46L423.94 655.18C414.08 674.64 393.65 686.43 371.87 685.24L344.19 683.73L320.97 698.87C302.7 710.79 279.12 710.79 260.85 698.87L237.63 683.73L209.95 685.24C188.17 686.43 167.75 674.63 157.88 655.18L145.35 630.46L120.63 617.93C101.17 608.07 89.38 587.64 90.57 565.86L92.08 538.18L76.94 514.96C65.02 496.69 65.02 473.11 76.94 454.84L92.08 431.62L90.57 403.94C89.38 382.16 101.18 361.74 120.63 351.87L145.35 339.34L157.88 314.62C167.74 295.16 188.17 283.37 209.95 284.56L237.63 286.07L260.85 270.93C279.12 259.01 302.7 259.01 320.97 270.93Z" fill="url(#paint4_linear_202_178)"/>
<path d="M320.97 291.12L339.58 303.26L361.77 302.05C383.55 300.86 403.97 312.66 413.84 332.11L423.89 351.93L443.71 361.98C463.17 371.84 474.96 392.27 473.77 414.05L472.56 436.24L484.7 454.85C496.62 473.12 496.62 496.7 484.7 514.97L472.56 533.58L473.77 555.77C474.96 577.55 463.16 597.97 443.71 607.84L423.89 617.89L413.84 637.71C403.98 657.17 383.55 668.96 361.77 667.77L339.58 666.56L320.97 678.7C302.7 690.62 279.12 690.62 260.85 678.7L242.24 666.56L220.05 667.77C198.27 668.96 177.85 657.16 167.98 637.71L157.93 617.89L138.11 607.84C118.65 597.98 106.86 577.55 108.05 555.77L109.26 533.58L97.1202 514.97C85.2002 496.7 85.2002 473.12 97.1202 454.85L109.26 436.24L108.05 414.05C106.86 392.27 118.66 371.85 138.11 361.98L157.93 351.93L167.98 332.11C177.84 312.65 198.27 300.86 220.05 302.05L242.24 303.26L260.85 291.12C279.12 279.2 302.7 279.2 320.97 291.12Z" fill="url(#paint5_linear_202_178)"/>
<path d="M398.342 478.12H404.362C429.982 478.12 446.782 490.86 446.782 517.46C446.782 547.14 428.442 559.74 403.802 559.74C389.522 559.74 375.662 554.98 369.082 547.28C364.742 542.24 365.022 533.98 369.782 529.78C373.702 526.28 379.582 526.28 383.222 527.96C386.302 529.36 388.262 530.76 390.362 531.88C392.602 533 396.102 534.26 402.262 534.26C412.342 534.26 419.342 528.8 419.342 517.46C419.342 507.1 413.042 501.78 400.022 501.78H388.682C372.162 501.78 367.262 496.6 368.102 480.78L369.362 455.72C370.202 439.9 373.282 434.72 389.802 434.72H432.222C440.202 434.72 443.282 441.3 443.282 446.9C443.282 452.5 440.342 458.66 432.222 458.66H399.042C396.522 458.66 395.682 458.94 395.542 461.6L394.982 475.18C394.842 477.84 395.822 478.12 398.342 478.12Z" fill="#FDFCF5"/>
<path d="M307.584 433.181C315.284 435.001 319.764 442.561 316.684 451.801L281.684 557.501H253.404L217.704 451.521C214.624 442.561 219.944 435.001 227.644 433.181C235.484 431.361 244.024 434.021 246.544 443.121L268.104 519.841L289.384 442.981C291.904 434.021 299.744 431.361 307.584 433.181Z" fill="#FDFCF5"/>
<path d="M215.357 557.5H172.937C156.137 557.5 151.097 551.48 151.097 535.38V446.76C151.097 437.38 158.097 432.48 165.657 432.48C173.217 432.48 180.217 437.38 180.217 446.76V528.94C180.217 532.3 181.057 533 184.277 533H215.357C223.617 533 226.697 539.3 226.697 545.04C226.697 550.78 223.477 557.5 215.357 557.5Z" fill="#FDFCF5"/>
<defs>
<linearGradient id="paint0_linear_202_178" x1="4.43977" y1="484.91" x2="577.37" y2="484.91" gradientUnits="userSpaceOnUse">
<stop stop-color="#F4B641"/>
<stop offset="1" stop-color="#E5A32D"/>
</linearGradient>
<linearGradient id="paint1_linear_202_178" x1="3" y1="484.91" x2="578.81" y2="484.91" gradientUnits="userSpaceOnUse">
<stop stop-color="#F4B641"/>
<stop offset="1" stop-color="#E5A32D"/>
</linearGradient>
<linearGradient id="paint2_linear_202_178" x1="13.6702" y1="484.91" x2="568.14" y2="484.91" gradientUnits="userSpaceOnUse">
<stop stop-color="#FFDC64"/>
<stop offset="1" stop-color="#F8BE3C"/>
</linearGradient>
<linearGradient id="paint3_linear_202_178" x1="57.3198" y1="484.91" x2="524.49" y2="484.91" gradientUnits="userSpaceOnUse">
<stop stop-color="#E69627"/>
<stop offset="1" stop-color="#F5AD31"/>
</linearGradient>
<linearGradient id="paint4_linear_202_178" x1="67.99" y1="484.91" x2="513.82" y2="484.91" gradientUnits="userSpaceOnUse">
<stop stop-color="#F4B53B"/>
<stop offset="1" stop-color="#F0AC2F"/>
</linearGradient>
<linearGradient id="paint5_linear_202_178" x1="88.1802" y1="484.91" x2="493.63" y2="484.91" gradientUnits="userSpaceOnUse">
<stop stop-color="#FECC4B"/>
<stop offset="1" stop-color="#F7B93A"/>
</linearGradient>
</defs>
</svg>
