<svg width="582" height="782" viewBox="0 0 582 782" fill="none" xmlns="http://www.w3.org/2000/svg">
<g clip-path="url(#clip0_202_199)">
<path d="M290.998 0H143.509C124.721 0 109.492 15.2253 109.492 34.0096V151.284C109.492 161.64 114.211 171.427 122.311 177.885L209.434 247.274L290.998 246.714L372.563 247.274L459.686 177.885C467.786 171.437 472.505 161.64 472.505 151.284V34.0096C472.505 15.2253 457.276 0 438.488 0H290.998Z" fill="#BD3D68"/>
<path d="M290.999 0H149.419C131.39 0 116.771 14.9154 116.771 33.3098V148.175C116.771 158.321 121.301 167.909 129.081 174.227L212.715 242.186L291.009 241.636L369.303 242.186L452.937 174.227C460.717 167.909 465.246 158.321 465.246 148.175V33.3098C465.246 14.9154 450.627 0 432.599 0H291.019H290.999Z" fill="#E1779A"/>
<path d="M211.704 0H370.293C380.862 0 389.441 8.57738 389.441 19.1441V233.638H192.556V19.1441C192.556 8.57738 201.135 0 211.704 0Z" fill="#FEFAEC"/>
<path d="M268.441 0H313.567C319.287 0 323.937 4.64859 323.937 10.3668V233.638H258.071V10.3668C258.071 4.64859 262.721 0 268.441 0Z" fill="#F2AFC1"/>
<path d="M290.999 781.94C451.713 781.94 581.998 654.421 581.998 497.118C581.998 339.815 451.713 212.295 290.999 212.295C130.285 212.295 0 339.815 0 497.118C0 654.421 130.285 781.94 290.999 781.94Z" fill="url(#paint0_linear_202_199)"/>
<path d="M290.999 774.203C447.35 774.203 574.098 650.148 574.098 497.118C574.098 344.088 447.35 220.033 290.999 220.033C134.647 220.033 7.89941 344.088 7.89941 497.118C7.89941 650.148 134.647 774.203 290.999 774.203Z" fill="url(#paint1_linear_202_199)"/>
<path d="M291.049 723.189C420.246 723.189 524.982 620.68 524.982 494.229C524.982 367.778 420.246 265.269 291.049 265.269C161.851 265.269 57.1157 367.778 57.1157 494.229C57.1157 620.68 161.851 723.189 291.049 723.189Z" fill="url(#paint2_linear_202_199)"/>
<path d="M290.889 712.512C414.707 712.512 515.082 614.268 515.082 493.079C515.082 371.89 414.707 273.646 290.889 273.646C167.07 273.646 66.6948 371.89 66.6948 493.079C66.6948 614.268 167.07 712.512 290.889 712.512Z" fill="url(#paint3_linear_202_199)"/>
<path d="M290.889 691.338C402.757 691.338 493.444 602.574 493.444 493.079C493.444 383.583 402.757 294.82 290.889 294.82C179.021 294.82 88.3335 383.583 88.3335 493.079C88.3335 602.574 179.021 691.338 290.889 691.338Z" fill="url(#paint4_linear_202_199)"/>
<path d="M399.334 442.16C401.434 436.42 405.774 433.48 411.654 433.48C419.774 433.48 425.654 438.38 425.654 447.62V558.5H397.654V476.88H385.894C378.054 476.88 371.474 472.82 371.474 465.12C371.474 458.68 375.954 454.48 381.554 453.64C389.114 452.66 396.674 449.58 399.334 442.16Z" fill="#FDFCF5"/>
<path d="M317.256 434.18C324.956 436 329.436 443.56 326.356 452.8L291.356 558.5H263.076L227.376 452.52C224.296 443.56 229.616 436 237.316 434.18C245.156 432.36 253.696 435.02 256.216 444.12L277.776 520.84L299.056 443.98C301.576 435.02 309.416 432.36 317.256 434.18Z" fill="#FDFCF5"/>
<path d="M225.029 558.5H182.609C165.809 558.5 160.769 552.48 160.769 536.38V447.76C160.769 438.38 167.769 433.48 175.329 433.48C182.889 433.48 189.889 438.38 189.889 447.76V529.94C189.889 533.3 190.729 534 193.949 534H225.029C233.289 534 236.369 540.3 236.369 546.04C236.369 551.78 233.149 558.5 225.029 558.5Z" fill="#FDFCF5"/>
</g>
<defs>
<linearGradient id="paint0_linear_202_199" x1="0" y1="497.118" x2="582.008" y2="497.118" gradientUnits="userSpaceOnUse">
<stop stop-color="#F4B641"/>
<stop offset="1" stop-color="#E5A32D"/>
</linearGradient>
<linearGradient id="paint1_linear_202_199" x1="7.89941" y1="497.118" x2="574.098" y2="497.118" gradientUnits="userSpaceOnUse">
<stop stop-color="#FFDC64"/>
<stop offset="1" stop-color="#F8BE3C"/>
</linearGradient>
<linearGradient id="paint2_linear_202_199" x1="57.1157" y1="494.229" x2="524.972" y2="494.229" gradientUnits="userSpaceOnUse">
<stop stop-color="#E69627"/>
<stop offset="1" stop-color="#F5AD31"/>
</linearGradient>
<linearGradient id="paint3_linear_202_199" x1="66.6948" y1="493.079" x2="515.082" y2="493.079" gradientUnits="userSpaceOnUse">
<stop stop-color="#F4B53B"/>
<stop offset="1" stop-color="#F0AC2F"/>
</linearGradient>
<linearGradient id="paint4_linear_202_199" x1="88.3335" y1="493.079" x2="493.444" y2="493.079" gradientUnits="userSpaceOnUse">
<stop stop-color="#FECC4B"/>
<stop offset="1" stop-color="#F7B93A"/>
</linearGradient>
<clipPath id="clip0_202_199">
<rect width="582" height="782" fill="white"/>
</clipPath>
</defs>
</svg>
